Patient4_TMGait_0pt4_02_right_01_EMG.mot
version=1
nRows=20
nColumns=33
inDegrees=no
endheader
time	1LAddLong	2LGlutMax	3LGlutMed	4LIliopsoas	5LSemiMemb	6LBicFemLong	7LRecFem	8LVastMed	9LVastLat	10LGasMed	11LTibAnt	12lTibPost	13LPeroneusLong	14LSol	15LExtDigLong	16LFlexDigLong	17RAddLong	18RGlutMax	19RGlutMed	20RIliopsoas	21RSemiMemb	22RBicFemLong	23RRecFem	24RVastMed	25RVastLat	26RGasMed	27RTibAnt	28RTibPost	29RPeroneusLong	30RSol	31RExtDigLong	32RFlexDigLong
0.98	0.011749	0.091095	0.11643	0.005798	-0.005188	-0.003662	-0.064087	-0.000458	-0.003357	0.010071	-0.065002	0.003357	0.028839	0.22553	0.003967	0.018005	0.045929	-0.66696	-1.0831	0.075989	0.35095	-0.24963	0.35797	-0.10056	-0.023956	-0.023193	-0.062408	0.019073	0.3183	-0.30762	-0.003967	-0.00885
0.981	-0.00351	0.07431	0.12772	0.00351	0.011444	-0.023651	-0.058441	-0.001678	-0.013275	0.031281	-0.007935	-0.002289	-0.00412	0.28015	0.18753	-0.007172	-0.016174	-0.51346	-0.35858	0.04837	0.13702	-0.20187	0.40955	-0.15121	-0.091858	-0.011597	-0.041199	-0.012054	0.42557	-0.073853	-0.001221	-0.004272
0.982	0.014038	0.079498	0.12039	-0.00946	0.010834	-0.041809	-0.053253	-0.010529	-0.007172	0.02243	0.081787	0.001526	0.023346	0.23682	0.17532	0	-0.038757	-0.47897	-0.46997	0.10651	0.18524	-0.095825	0.45853	-0.12558	-0.11002	-0.008087	-0.010376	-0.076904	0.31708	-0.39078	-0.006256	-0.004578
0.983	0.001984	0.058441	0.12711	0.001678	0.010986	-0.043488	-0.029449	0.005798	-0.001221	0.006104	-0.12131	-0.002899	0.04303	0.12466	-0.34653	-0.010681	-0.020905	-0.37384	0.12253	0.10986	-0.30685	0.010986	0.4216	-0.041656	-0.067596	0.041656	-0.011597	-0.013275	-0.074921	-0.089569	-0.003815	-0.000153
0.984	0.007019	0.11261	0.14999	-0.005341	0.014954	-0.050049	-0.03479	-0.009918	0.001678	-0.010986	0.00946	0.003815	0.041656	0.053101	-0.50034	0.00412	-0.023651	-0.25162	1.5727	-0.06958	-0.54474	0.016327	0.35812	0.010529	0.041199	0.058899	0.01709	-0.00885	-0.066681	0.24857	0.001526	-0.00824
0.985	-0.008698	0.088043	0.15747	-0.020905	0.011749	-0.048676	-0.034943	0.00351	-0.00473	0.020142	0.058899	-0.003052	-0.025024	-0.052338	-0.45441	-0.021057	-0.033112	-0.29633	1.2141	-0.19302	-0.37308	-0.096436	0.22217	0.000458	0.035248	0.063782	-0.023346	-0.041656	0.073395	0.27359	0.001678	-0.00885
0.986	0.002594	0.068512	0.15518	0.00412	0.009918	-0.079651	-0.028381	0.00473	0.007172	0.019379	-0.008698	-0.000153	-0.032196	-0.061646	0.11673	-0.005188	-0.018616	-0.58929	0.59189	-0.11627	-0.064392	-0.17227	0.36148	-0.10834	0.00885	0.041046	-0.085754	-0.062561	0.006104	0.3302	-0.003967	-0.00885
0.987	-0.004578	0.052185	0.16846	0.003052	0.012512	-0.076141	-0.027008	-0.000763	0.007935	0.009766	-0.15869	0.002289	0.039978	-0.08316	0.044403	-0.010834	0.011292	-0.79193	-0.68298	0.037231	0.15045	-0.14572	0.62317	-0.20477	-0.006104	0.009766	-0.12054	-0.059357	0.13275	0.51514	-0.006256	-0.011749
0.988	-0.018768	0.039063	0.13077	0.001984	0.007935	-0.063629	-0.010986	0.003357	0.015717	0.000916	-0.017548	-0.001678	0.03418	-0.082397	-0.46768	0.006409	-0.033722	-0.82016	-0.69061	-0.018158	0.11246	-0.075989	0.62118	-0.054169	-0.019989	-0.016937	-0.074158	0.02655	-0.13107	0.40222	0.001831	-0.010834
0.989	-0.020905	0.027618	0.14496	-0.003204	0.01236	-0.054474	-0.029602	0.003204	0.018768	-0.015564	-0.043182	0.006866	0.042419	-0.16205	-0.24567	-0.008545	-0.046692	-0.71976	-0.13473	-0.007324	0.12726	-0.030365	0.54016	0.005798	0.011749	-0.042725	-0.077972	0.06424	-0.15579	0.014648	-0.00351	-0.005341
0.99	-0.026703	0.017395	0.15091	0.016479	0.01358	-0.053253	0.007629	-0.003662	0.022583	-0.018463	-0.031433	-0.001678	0.053406	-0.22308	-0.018005	-0.011749	-0.065155	-0.66711	-1.2058	0.12589	-0.16998	0.041351	0.12589	-0.11108	0.023346	-0.057831	-0.010223	0.029449	-0.1239	-0.39581	-0.00473	-0.005188
0.991	-0.022888	0.022736	0.13733	0.039673	0.005493	-0.034027	-0.002899	0.002747	0.02182	-0.002747	-0.13336	-0.001373	0.030212	-0.075989	-0.030975	-0.023804	-0.028381	-0.54611	-2.0114	0.14267	-0.19501	0.03067	0.10315	-0.060272	-0.013275	-0.045624	0.022278	0.00412	-0.045319	-0.14084	-0.004272	-0.013885
0.992	-0.010223	-0.012665	0.14664	0.069122	-0.011902	-0.028839	0.012207	-0.001678	0.025787	0.024872	-0.11261	0.001526	-0.067902	0.035553	0.23544	-0.020599	-0.008087	-0.50873	-1.9733	0.090332	-0.063324	-0.005188	0.17014	0.005951	-0.005951	-0.028687	0.041962	-0.009308	0.21179	0.032959	-0.001526	-0.011444
0.993	-0.008087	-0.034027	0.14496	0.046387	-0.000763	-0.039673	0.025177	0.005951	0.039215	0.024109	-0.085754	0.002136	-0.039215	0.050659	0.24246	-0.004578	0.00946	-0.31708	-0.65277	-0.035553	-0.074158	-0.020599	-0.080719	-0.089417	-0.10071	-0.025024	0.081635	-0.015106	0.20187	-0.070496	0.00061	-0.016479
0.994	-0.010529	-0.030365	0.15442	-0.001678	-0.012207	-0.043182	0.034027	0.007477	0.049286	0.01236	-0.11932	-0.005188	-0.007019	0.038147	0.1297	-0.002136	-0.011292	-0.21072	1.2143	-0.09491	-0.11429	0.023956	-0.22125	-0.028381	-0.037689	-0.019531	0.089111	-0.037079	0.07782	0.1831	-0.001526	-0.00885
0.995	-0.008392	-0.040894	0.16357	-0.032654	-0.000916	-0.032349	0.039673	-0.00061	0.065918	0.006561	-0.16937	0.000916	-0.000763	0.00351	-0.10162	-0.001526	0.005798	-0.47165	0.35767	-0.11826	-0.12909	0.07843	-0.12054	0.023041	0.24414	-0.018768	0.06012	-0.094147	0.10422	0.42618	-0.007172	-0.006714
0.996	0.007629	-0.054626	0.16357	0.004425	0.000458	-0.038757	0.032349	0.015106	0.082703	0.039978	-0.20355	-0.001373	-0.017395	-0.023804	0.04425	-0.009155	0.027008	-0.50308	0.036926	-0.099945	0.14938	0.029602	0.081482	-0.1651	0.45746	-0.004883	0.00473	-0.15335	0.10941	0.4042	0.002899	-0.00885
0.997	0.003052	-0.06546	0.16083	0.01358	0.003357	-0.025635	0.018921	0.006409	0.081482	0.045013	-0.11154	0.005951	-0.039215	-0.03952	0.9874	0.000458	0.080872	-0.32989	0.23682	-0.025024	0.21515	-0.11902	0.01297	-0.16525	0.4567	0.000763	-0.14343	-0.025024	0.048676	0.084534	-0.003662	-0.006714
0.998	0.005188	-0.054779	0.15289	0.036011	-0.003052	-0.023499	0.042419	0.013428	0.078278	0.04715	0.085144	0.000458	-0.07431	0.083923	0.43304	0.008392	0.1001	-0.29251	-0.32883	0.047302	-0.005035	-0.12787	0.012817	-0.087891	0.31784	-0.00061	-0.15152	0.10834	-0.02533	-0.31128	-0.005493	-0.007477
0.999	0.001678	-0.049591	0.15427	0.027161	-0.000458	-0.037994	0.067444	0.013123	0.097351	-0.021362	0.23636	0.000305	0.040436	0.21973	1.2866	0.01358	0.072937	-0.34241	-0.1889	0.10468	-0.054779	-0.18249	0.040131	0.48614	0.048828	-0.001678	-0.10498	0.078888	-0.051727	-0.63705	-0.003967	-0.009918
